<svg id="icons" xmlns="http://www.w3.org/2000/svg" viewBox="0 0 64 64"><title>architecture-building-house-skyscraper</title><g id="architecture-building-house-skyscraper"><polygon points="38.75 14 44 7 50 15 38 15 38.75 14" fill="#b4d8ed"/><polygon points="8 14 15 23 1 23 8 14" fill="#b4d8ed"/><polygon points="63 23 63 63 50 63 50 23 56 23 56.5 23 63 23" fill="#b4d8ed"/><polygon points="38 63 38 15 50 15 50 23 50 63 38 63" fill="#fff"/><polygon points="38 15 38 63 15 63 15 48 15 23 15 14 19 14 19 1 34 1 34 14 38.75 14 38 15" fill="#d6edfc"/><polygon points="1 63 1 48 4 48 12 48 15 48 15 63 1 63" fill="#fff"/><polygon points="12 48 4 48 1 48 1 23 15 23 15 48 12 48" fill="#fff"/><line x1="38" y1="63" x2="15" y2="63" fill="none" stroke="#49789c" stroke-linecap="round" stroke-linejoin="round" stroke-width="2"/><polyline points="15 23 15 14 19 14 19 1 34 1 34 14 38.75 14 39 14" fill="none" stroke="#49789c" stroke-linecap="round" stroke-linejoin="round" stroke-width="2"/><line x1="22" y1="5" x2="22" y2="8" fill="none" stroke="#49789c" stroke-linecap="round" stroke-linejoin="round" stroke-width="2"/><line x1="25" y1="5" x2="25" y2="8" fill="none" stroke="#49789c" stroke-linecap="round" stroke-linejoin="round" stroke-width="2"/><line x1="28" y1="5" x2="28" y2="8" fill="none" stroke="#49789c" stroke-linecap="round" stroke-linejoin="round" stroke-width="2"/><line x1="31" y1="5" x2="31" y2="8" fill="none" stroke="#49789c" stroke-linecap="round" stroke-linejoin="round" stroke-width="2"/><line x1="22" y1="11" x2="22" y2="59" fill="none" stroke="#49789c" stroke-linecap="round" stroke-linejoin="round" stroke-width="2"/><line x1="19" y1="17" x2="19" y2="59" fill="none" stroke="#49789c" stroke-linecap="round" stroke-linejoin="round" stroke-width="2"/><line x1="34" y1="17" x2="34" y2="59" fill="none" stroke="#49789c" stroke-linecap="round" stroke-linejoin="round" stroke-width="2"/><line x1="25" y1="11" x2="25" y2="59" fill="none" stroke="#49789c" stroke-linecap="round" stroke-linejoin="round" stroke-width="2"/><line x1="28" y1="11" x2="28" y2="59" fill="none" stroke="#49789c" stroke-linecap="round" stroke-linejoin="round" stroke-width="2"/><line x1="31" y1="11" x2="31" y2="59" fill="none" stroke="#49789c" stroke-linecap="round" stroke-linejoin="round" stroke-width="2"/><polygon points="1 48 1 63 15 63 15 48 15 23 1 23 1 48" fill="none" stroke="#49789c" stroke-linecap="round" stroke-linejoin="round" stroke-width="2"/><line x1="5" y1="30" x2="5" y2="34" fill="none" stroke="#49789c" stroke-linecap="round" stroke-linejoin="round" stroke-width="2"/><line x1="8" y1="30" x2="8" y2="34" fill="none" stroke="#49789c" stroke-linecap="round" stroke-linejoin="round" stroke-width="2"/><line x1="11" y1="30" x2="11" y2="34" fill="none" stroke="#49789c" stroke-linecap="round" stroke-linejoin="round" stroke-width="2"/><line x1="4" y1="37" x2="12" y2="37" fill="none" stroke="#49789c" stroke-linecap="round" stroke-linejoin="round" stroke-width="2"/><line x1="5" y1="41" x2="5" y2="45" fill="none" stroke="#49789c" stroke-linecap="round" stroke-linejoin="round" stroke-width="2"/><line x1="8" y1="41" x2="8" y2="45" fill="none" stroke="#49789c" stroke-linecap="round" stroke-linejoin="round" stroke-width="2"/><line x1="11" y1="41" x2="11" y2="45" fill="none" stroke="#49789c" stroke-linecap="round" stroke-linejoin="round" stroke-width="2"/><line x1="4" y1="48" x2="12" y2="48" fill="none" stroke="#49789c" stroke-linecap="round" stroke-linejoin="round" stroke-width="2"/><line x1="5" y1="52" x2="5" y2="56" fill="none" stroke="#49789c" stroke-linecap="round" stroke-linejoin="round" stroke-width="2"/><line x1="8" y1="52" x2="8" y2="56" fill="none" stroke="#49789c" stroke-linecap="round" stroke-linejoin="round" stroke-width="2"/><line x1="11" y1="52" x2="11" y2="56" fill="none" stroke="#49789c" stroke-linecap="round" stroke-linejoin="round" stroke-width="2"/><line x1="4" y1="59" x2="12" y2="59" fill="none" stroke="#49789c" stroke-linecap="round" stroke-linejoin="round" stroke-width="2"/><line x1="4" y1="27" x2="12" y2="27" fill="none" stroke="#49789c" stroke-linecap="round" stroke-linejoin="round" stroke-width="2"/><polyline points="50 15 44 7 38.75 14 38 15" fill="none" stroke="#49789c" stroke-linecap="round" stroke-linejoin="round" stroke-width="2"/><polyline points="50 63 38 63 38 15 50 15 50 23" fill="none" stroke="#49789c" stroke-linecap="round" stroke-linejoin="round" stroke-width="2"/><line x1="41" y1="29" x2="47" y2="29" fill="none" stroke="#49789c" stroke-linecap="round" stroke-linejoin="round" stroke-width="2"/><line x1="41" y1="32.5" x2="41" y2="35.5" fill="none" stroke="#49789c" stroke-linecap="round" stroke-linejoin="round" stroke-width="2"/><line x1="53.5" y1="34" x2="53.5" y2="38" fill="none" stroke="#49789c" stroke-linecap="round" stroke-linejoin="round" stroke-width="2"/><line x1="56.5" y1="34" x2="56.5" y2="38" fill="none" stroke="#49789c" stroke-linecap="round" stroke-linejoin="round" stroke-width="2"/><line x1="59.5" y1="34" x2="59.5" y2="38" fill="none" stroke="#49789c" stroke-linecap="round" stroke-linejoin="round" stroke-width="2"/><line x1="53.5" y1="27" x2="53.5" y2="31" fill="none" stroke="#49789c" stroke-linecap="round" stroke-linejoin="round" stroke-width="2"/><line x1="56.5" y1="27" x2="56.5" y2="31" fill="none" stroke="#49789c" stroke-linecap="round" stroke-linejoin="round" stroke-width="2"/><line x1="59.5" y1="27" x2="59.5" y2="31" fill="none" stroke="#49789c" stroke-linecap="round" stroke-linejoin="round" stroke-width="2"/><line x1="53.5" y1="41" x2="53.5" y2="45" fill="none" stroke="#49789c" stroke-linecap="round" stroke-linejoin="round" stroke-width="2"/><line x1="56.5" y1="41" x2="56.5" y2="45" fill="none" stroke="#49789c" stroke-linecap="round" stroke-linejoin="round" stroke-width="2"/><line x1="59.5" y1="41" x2="59.5" y2="45" fill="none" stroke="#49789c" stroke-linecap="round" stroke-linejoin="round" stroke-width="2"/><line x1="53.5" y1="48" x2="53.5" y2="52" fill="none" stroke="#49789c" stroke-linecap="round" stroke-linejoin="round" stroke-width="2"/><line x1="56.5" y1="48" x2="56.5" y2="52" fill="none" stroke="#49789c" stroke-linecap="round" stroke-linejoin="round" stroke-width="2"/><line x1="59.5" y1="48" x2="59.5" y2="52" fill="none" stroke="#49789c" stroke-linecap="round" stroke-linejoin="round" stroke-width="2"/><line x1="53.5" y1="55" x2="53.5" y2="59" fill="none" stroke="#49789c" stroke-linecap="round" stroke-linejoin="round" stroke-width="2"/><line x1="56.5" y1="55" x2="56.5" y2="59" fill="none" stroke="#49789c" stroke-linecap="round" stroke-linejoin="round" stroke-width="2"/><line x1="59.5" y1="55" x2="59.5" y2="59" fill="none" stroke="#49789c" stroke-linecap="round" stroke-linejoin="round" stroke-width="2"/><line x1="44" y1="32.5" x2="44" y2="35.5" fill="none" stroke="#49789c" stroke-linecap="round" stroke-linejoin="round" stroke-width="2"/><line x1="47" y1="32.5" x2="47" y2="35.5" fill="none" stroke="#49789c" stroke-linecap="round" stroke-linejoin="round" stroke-width="2"/><line x1="41" y1="19" x2="47" y2="19" fill="none" stroke="#49789c" stroke-linecap="round" stroke-linejoin="round" stroke-width="2"/><line x1="41" y1="22.5" x2="41" y2="25.5" fill="none" stroke="#49789c" stroke-linecap="round" stroke-linejoin="round" stroke-width="2"/><line x1="44" y1="22.5" x2="44" y2="25.5" fill="none" stroke="#49789c" stroke-linecap="round" stroke-linejoin="round" stroke-width="2"/><line x1="47" y1="22.5" x2="47" y2="25.5" fill="none" stroke="#49789c" stroke-linecap="round" stroke-linejoin="round" stroke-width="2"/><line x1="41" y1="39" x2="47" y2="39" fill="none" stroke="#49789c" stroke-linecap="round" stroke-linejoin="round" stroke-width="2"/><line x1="41" y1="42.5" x2="41" y2="45.5" fill="none" stroke="#49789c" stroke-linecap="round" stroke-linejoin="round" stroke-width="2"/><line x1="44" y1="42.5" x2="44" y2="45.5" fill="none" stroke="#49789c" stroke-linecap="round" stroke-linejoin="round" stroke-width="2"/><line x1="47" y1="42.5" x2="47" y2="45.5" fill="none" stroke="#49789c" stroke-linecap="round" stroke-linejoin="round" stroke-width="2"/><line x1="41" y1="49" x2="47" y2="49" fill="none" stroke="#49789c" stroke-linecap="round" stroke-linejoin="round" stroke-width="2"/><line x1="41" y1="52.5" x2="41" y2="55.5" fill="none" stroke="#49789c" stroke-linecap="round" stroke-linejoin="round" stroke-width="2"/><line x1="44" y1="52.5" x2="44" y2="55.5" fill="none" stroke="#49789c" stroke-linecap="round" stroke-linejoin="round" stroke-width="2"/><line x1="47" y1="52.5" x2="47" y2="55.5" fill="none" stroke="#49789c" stroke-linecap="round" stroke-linejoin="round" stroke-width="2"/><line x1="41" y1="59" x2="47" y2="59" fill="none" stroke="#49789c" stroke-linecap="round" stroke-linejoin="round" stroke-width="2"/><line x1="8" y1="14" x2="1" y2="23" fill="none" stroke="#49789c" stroke-linecap="round" stroke-linejoin="round" stroke-width="2"/><polyline points="15 23 8 14 8 9" fill="none" stroke="#49789c" stroke-linecap="round" stroke-linejoin="round" stroke-width="2"/><line x1="44" y1="7" x2="44" y2="3" fill="none" stroke="#49789c" stroke-linecap="round" stroke-linejoin="round" stroke-width="2"/><polygon points="56.5 23 63 23 63 63 50 63 50 23 56 23 56.5 23" fill="none" stroke="#49789c" stroke-linecap="round" stroke-linejoin="round" stroke-width="2"/><line x1="56.5" y1="18" x2="56.5" y2="23" fill="none" stroke="#49789c" stroke-linecap="round" stroke-linejoin="round" stroke-width="2"/></g></svg>